# xmcd CD database file
#
# Track frame offsets:
#	150
#	6740
#	19008
#	34599
#	49871
#	67150
#	90218
#	108412
#	127090
#	148166
#	153911
#	168371
#	181668
#	201652
#	226237
#	241132
#	257744
#	271523
#	294534
#
# Disc length: 4249 seconds
#
# Revision: 3
# Processed by: cddbd v1.5.2PL0 Copyright (c) Steve Scherf et al.
# Submitted via: CDex 1.70beta3
#
DISCID=08109713
DTITLE=蛟也伐萓・悴 - JAPONESQUE
DYEAR=1900
DGENRE=Blues
TTITLE0=Introduction ・曷APONESQUE・・TTITLE1=So Nice feat. Mr. Blistah
TTITLE1=
TTITLE2=Boom Boom Boys
TTITLE3=V. I. P. feat. Train
TTITLE4=Slow feat. Omarion
TTITLE5=Brave
TTITLE6=Everyday
TTITLE7=IN THE AIR
TTITLE8=You are not alone -Acoustic Version-
TTITLE9=Interlude ・曷APONESQUE・・TTITLE10=ESCALATE
TTITLE10=
TTITLE11=Love Me Back
TTITLE12=No Man's Land
TTITLE13=諢帙ｒ豁｢繧√↑縺・〒
TTITLE14=KO-SO-KO-SO
TTITLE15=Lay Down
TTITLE16=Love Technique
TTITLE17=Poppin' love cocktail feat. TEEDA
TTITLE18=All for you
EXTD=
EXTT0=
EXTT1=
EXTT2=
EXTT3=
EXTT4=
EXTT5=
EXTT6=
EXTT7=
EXTT8=
EXTT9=
EXTT10=
EXTT11=
EXTT12=
EXTT13=
EXTT14=
EXTT15=
EXTT16=
EXTT17=
EXTT18=
PLAYORDER=
